# xmcd
#
# Track frame offsets:
#	150
#	11915
#	26130
#	40897
#	54157
#	69010
#	82207
#	116362
#	128137
#	149847
#	183315
#	212045
#	226952
#
# Disc length: 3240 seconds
#
# Revision: 2
# Processed by: cddbd v1.5.2PL0 Copyright (c) Steve Scherf et al.
# Submitted via: audiograbber 1.83.01
#
DISCID=b50ca60d
DTITLE=Charlie Parker - Charlie Parker - The Charlie Parker Story
DYEAR=2003
DGENRE=Jazz
TTITLE0=Warmin`Up A Riff (Master)
TTITLE1=Billie`s Bounce (Master)
TTITLE2=Now`s The Time (Master)
TTITLE3=Thrivin` From A Riff (Master)
TTITLE4=Meandering (Master)
TTITLE5=KoKo (Master)
TTITLE6=Billie`s Bounce (Original Savoy LP)
TTITLE7=Warmin`Up A Riff (Original Savoy LP)
TTITLE8=Billie`s Bounce (Original Savoy LP)
TTITLE9=Now`s The Time (Original Savoy LP)
TTITLE10=Thrivin` From A Riff (Original Savoy LP)
TTITLE11=Meandering (Original Savoy LP)
TTITLE12=KoKo (Original Savoy LP)
EXTD=YEAR: 2003
EXTT0=
EXTT1=
EXTT2=
EXTT3=
EXTT4=
EXTT5=
EXTT6=
EXTT7=
EXTT8=
EXTT9=
EXTT10=
EXTT11=
EXTT12=
PLAYORDER=
